<svg width="110" height="33" viewBox="0 0 110 33" fill="none" xmlns="http://www.w3.org/2000/svg"><mask id="mask0_1113_4775" maskUnits="userSpaceOnUse" x="-105" y="-99" width="320" height="231"><path d="M214.941 -98.3477H-104.945V131.347H214.941V-98.3477Z" fill="white"></path></mask><g mask="url(#mask0_1113_4775)"><path d="M52.8187 9.13379V9.01172H42.9033L42.8772 9.12848C42.8528 9.27003 42.8319 9.42397 42.8145 9.59029C42.8145 9.74953 42.8145 9.90877 42.8145 10.068C42.8145 10.2273 42.8145 10.3865 42.8145 10.551C42.8259 10.7097 42.8468 10.8674 42.8772 11.0234L42.9033 11.1455H46.6667V24.0971H46.7973C47.1529 24.1411 47.5107 24.1623 47.8689 24.1608C48.2183 24.1629 48.5675 24.1416 48.9142 24.0971H49.0397V11.1455H52.8083V11.0234C52.8418 10.8644 52.8628 10.7029 52.871 10.5404C52.871 10.3653 52.871 10.2007 52.871 10.0468C52.8787 9.89117 52.8787 9.73527 52.871 9.57967C52.8615 9.42962 52.8405 9.28055 52.8083 9.13379" fill="#555C9A"></path><path d="M59.9738 13.0043C59.5676 13.0006 59.1635 13.0634 58.7769 13.1901C58.4397 13.2977 58.1206 13.457 57.8308 13.6625C57.5719 13.8421 57.3365 14.0543 57.1304 14.2942L56.937 14.5383V8.7473H56.8168C56.6443 8.71335 56.4696 8.69205 56.2941 8.68359C56.0955 8.68359 55.9282 8.68359 55.7714 8.68359C55.6146 8.68359 55.4526 8.68359 55.2487 8.68359C55.0732 8.69154 54.8985 8.71284 54.726 8.7473H54.6006V24.0928H54.726C54.8776 24.1193 55.0501 24.1406 55.2487 24.1565C55.4474 24.1724 55.6042 24.1565 55.7453 24.1565C55.8864 24.1565 56.0641 24.1565 56.268 24.1565C56.4718 24.1565 56.6338 24.1193 56.7907 24.0928H56.9109V18.5512C56.9001 18.0123 56.9724 17.475 57.1252 16.9588C57.2403 16.5663 57.4383 16.2041 57.7054 15.8972C57.9363 15.6413 58.2226 15.4432 58.5417 15.3186C58.8606 15.1958 59.1989 15.1329 59.54 15.1329C59.7955 15.1139 60.0515 15.1615 60.2838 15.2711C60.5162 15.3807 60.7171 15.5487 60.8676 15.7592C61.213 16.3881 61.3692 17.1059 61.3171 17.824V24.0875H61.4426C61.5942 24.114 61.7667 24.1353 61.9653 24.1512C62.1639 24.1671 62.3207 24.1512 62.488 24.1512C62.6552 24.1512 62.8068 24.1512 63.0107 24.1512C63.2145 24.1512 63.3713 24.114 63.5333 24.0875H63.6536V17.272C63.7331 16.1367 63.4167 15.0093 62.7598 14.0872C62.4093 13.7073 61.9795 13.4119 61.5019 13.2227C61.0244 13.0335 60.5112 12.9553 60 12.9937" fill="#555C9A"></path><path d="M74.1545 14.4471C73.7658 13.9931 73.2842 13.6308 72.7432 13.3855C72.1283 13.1222 71.4661 12.992 70.7988 13.0033C70.0274 12.9855 69.2616 13.1414 68.5565 13.4598C67.9504 13.7496 67.4149 14.1719 66.9884 14.6966C66.5606 15.2355 66.2441 15.8566 66.058 16.5225C65.8548 17.2493 65.7545 18.0017 65.7601 18.7572C65.7532 19.5135 65.8571 20.2666 66.0685 20.9919C66.2639 21.6668 66.6119 22.2861 67.0847 22.8003C67.5575 23.3146 68.142 23.7095 68.7917 23.9538C69.5895 24.2432 70.4327 24.3817 71.2797 24.3625C71.8837 24.3667 72.487 24.3188 73.083 24.2192C73.5977 24.1272 74.1008 23.9777 74.5831 23.7733L74.6772 23.7308V23.63C74.6658 23.3256 74.6238 23.0233 74.5517 22.7276C74.4949 22.4525 74.4017 22.1865 74.2747 21.9367L74.212 21.8199L74.0918 21.8677C73.2351 22.2046 72.3238 22.3757 71.4051 22.372C70.546 22.4368 69.695 22.1652 69.0269 21.6129C68.4702 20.9938 68.1723 20.1792 68.1958 19.3411H75.2521V19.2031C75.2521 19.0492 75.2783 18.8687 75.2939 18.6723C75.3096 18.4759 75.2939 18.2476 75.2939 18.0566C75.3005 17.3819 75.2036 16.7103 75.0065 16.066C74.8269 15.482 74.5336 14.9405 74.144 14.4736M70.7256 14.962C71.0774 14.9529 71.4265 15.0274 71.7449 15.1796C72.0176 15.3199 72.2567 15.5192 72.4453 15.7635C72.6369 16.0246 72.7787 16.3199 72.8634 16.634C72.9501 16.929 72.9993 17.234 73.0098 17.5417H68.2011C68.2626 16.8568 68.5206 16.2053 68.9433 15.6679C69.1718 15.4255 69.4497 15.2368 69.7576 15.1148C70.0655 14.9929 70.3958 14.9407 70.7256 14.962Z" fill="#555C9A"></path><path d="M83.0041 13.0034C82.5962 13.0001 82.1903 13.0629 81.8019 13.1892C81.4593 13.2973 81.1336 13.4546 80.8349 13.6563C80.4332 13.9242 80.0797 14.2599 79.7895 14.6489C79.7895 14.5162 79.7634 14.3729 79.7477 14.219C79.7059 13.8686 79.6641 13.582 79.6222 13.375V13.2741H79.523L79.0996 13.2104C78.8057 13.1839 78.5101 13.1839 78.2162 13.2104L77.7667 13.2741H77.6465V24.0919H77.7667C77.9183 24.1184 78.096 24.1397 78.2894 24.1556C78.4828 24.1715 78.6553 24.1556 78.8121 24.1556C78.9689 24.1556 79.1309 24.1556 79.3348 24.1556C79.5386 24.1556 79.6954 24.1184 79.8575 24.0919H79.9829V18.6246C79.9715 18.0849 80.0474 17.5469 80.2077 17.0322C80.3304 16.6419 80.5295 16.2808 80.7931 15.9706C81.0237 15.7067 81.3119 15.5013 81.6346 15.3708C81.9574 15.241 82.3015 15.1744 82.6486 15.1744C82.8993 15.1537 83.151 15.2002 83.3784 15.3091C83.6059 15.4181 83.8012 15.5858 83.9449 15.7954C84.2725 16.4322 84.4191 17.149 84.3683 17.8656V24.129H84.4885C84.6401 24.1556 84.8126 24.1768 85.0112 24.1927C85.2098 24.2087 85.3718 24.1927 85.5339 24.1927C85.6959 24.1927 85.858 24.1927 86.0566 24.1927C86.2552 24.1927 86.4277 24.1556 86.5793 24.129H86.7047V17.2711C86.7831 16.1367 86.4688 15.0102 85.8161 14.0863C85.4689 13.7051 85.0411 13.4086 84.565 13.2193C84.0888 13.0299 83.5766 12.9525 83.0668 12.9928" fill="#555C9A"></path><path d="M97.1477 14.4471C96.759 13.9931 96.2773 13.6308 95.7364 13.3855C95.1213 13.1226 94.4592 12.9925 93.792 13.0033C93.0205 12.9855 92.2547 13.1414 91.5496 13.4598C90.9435 13.7496 90.4081 14.1719 89.9816 14.6966C89.5518 15.2342 89.2351 15.8557 89.0512 16.5225C88.848 17.2493 88.7477 18.0017 88.7532 18.7572C88.7464 19.5135 88.8503 20.2666 89.0617 20.9919C89.2571 21.6668 89.6051 22.2861 90.0779 22.8003C90.5506 23.3146 91.1352 23.7095 91.7849 23.9538C92.5827 24.2432 93.4259 24.3817 94.2729 24.3625C94.8751 24.3669 95.4767 24.319 96.0709 24.2192C96.5873 24.1272 97.0921 23.9777 97.5763 23.7733L97.6703 23.7308V23.63C97.6539 23.3261 97.6119 23.0242 97.5449 22.7276C97.488 22.4525 97.3949 22.1865 97.2679 21.9367L97.2051 21.8199L97.0849 21.8677C96.2281 22.2041 95.3169 22.3752 94.3983 22.372C93.5392 22.4368 92.6882 22.1652 92.0201 21.6129C91.459 20.9965 91.1604 20.18 91.189 19.3411H98.2453V19.2031C98.2453 19.0492 98.2767 18.8687 98.2871 18.6723C98.2976 18.4759 98.2871 18.2476 98.2871 18.0566C98.2937 17.3819 98.1967 16.7103 97.9996 16.066C97.818 15.4829 97.5249 14.9417 97.1372 14.4736M93.7188 14.962C94.0706 14.9535 94.4195 15.028 94.738 15.1796C95.0107 15.3199 95.2498 15.5192 95.4385 15.7635C95.6301 16.0246 95.7719 16.3199 95.8566 16.634C95.9408 16.9296 95.9899 17.2343 96.003 17.5417H91.189C91.2499 16.8557 91.51 16.2036 91.9364 15.6679C92.165 15.4255 92.4429 15.2368 92.7508 15.1148C93.0586 14.9929 93.389 14.9407 93.7188 14.962Z" fill="#555C9A"></path><path d="M109.697 16.47C109.511 15.8106 109.194 15.1965 108.767 14.6653C108.339 14.1474 107.803 13.7322 107.198 13.4498C106.505 13.1555 105.76 13.0039 105.008 13.0039C104.256 13.0039 103.512 13.1555 102.818 13.4498C102.214 13.7322 101.678 14.1474 101.25 14.6653C100.821 15.1952 100.504 15.8097 100.32 16.47C99.9155 17.9243 99.9155 19.4639 100.32 20.9182C100.504 21.5786 100.821 22.193 101.25 22.7229C101.676 23.2407 102.212 23.6529 102.818 23.9278C104.222 24.5084 105.794 24.5084 107.198 23.9278C107.805 23.6529 108.341 23.2407 108.767 22.7229C109.197 22.1937 109.514 21.579 109.697 20.9182C110.094 19.4629 110.094 17.9253 109.697 16.47ZM104.993 22.4363C104.615 22.4664 104.237 22.3932 103.896 22.2242C103.556 22.0552 103.267 21.7967 103.059 21.4755C102.643 20.6111 102.426 19.6616 102.426 18.6994C102.426 17.7372 102.643 16.7878 103.059 15.9233C103.269 15.6053 103.56 15.3498 103.899 15.1829C104.239 15.0159 104.616 14.9436 104.993 14.9732C105.371 14.9444 105.75 15.0177 106.091 15.1854C106.433 15.3532 106.725 15.6096 106.937 15.9286C107.412 16.7672 107.635 17.7284 107.58 18.6941C107.634 19.6648 107.411 20.6306 106.937 21.4755C106.726 21.7959 106.434 22.0537 106.093 22.2224C105.751 22.3912 105.372 22.465 104.993 22.4363Z" fill="#555C9A"></path><path d="M13.627 6.94731C13.627 8.31209 13.2285 9.64621 12.4819 10.781C11.7352 11.9158 10.674 12.8002 9.4324 13.3225C8.19078 13.8448 6.82454 13.9814 5.50644 13.7152C4.18835 13.4489 2.9776 12.7917 2.02731 11.8267C1.07702 10.8616 0.429861 9.63206 0.167675 8.29351C-0.0945097 6.95496 0.0400543 5.56752 0.554349 4.30663C1.06864 3.04574 1.93957 1.96803 3.057 1.2098C4.17443 0.451574 5.48816 0.046875 6.83208 0.046875C8.63421 0.046875 10.3625 0.773886 11.6368 2.06797C12.9111 3.36205 13.627 5.1172 13.627 6.94731Z" fill="#ABADD7"></path><path d="M32.5225 26.084C32.5225 27.4488 32.124 28.7829 31.3774 29.9177C30.6308 31.0525 29.5695 31.9369 28.3279 32.4592C27.0863 32.9815 25.72 33.1181 24.402 32.8519C23.0839 32.5856 21.8731 31.9284 20.9228 30.9634C19.9725 29.9983 19.3254 28.7688 19.0632 27.4302C18.801 26.0917 18.9356 24.7042 19.4499 23.4433C19.9642 22.1825 20.8351 21.1048 21.9525 20.3465C23.0699 19.5883 24.3837 19.1836 25.7276 19.1836C27.5297 19.1836 29.258 19.9106 30.5323 21.2047C31.8066 22.4988 32.5225 24.2539 32.5225 26.084Z" fill="#ABADD7"></path><path d="M25.6803 -0.000495471C23.8781 -0.000495471 22.1498 0.726515 20.8755 2.0206C19.6012 3.31468 18.8853 5.06983 18.8853 6.89994C18.8853 10.1697 18.2476 13.1953 15.6394 15.844C13.3343 18.1848 10.5327 19.1402 6.83208 19.1402C5.48816 19.1402 4.17443 19.5449 3.057 20.3032C1.93957 21.0614 1.06864 22.1391 0.554349 23.4C0.0400543 24.6609 -0.0945097 26.0483 0.167675 27.3869C0.429861 28.7254 1.07702 29.955 2.02731 30.92C2.9776 31.8851 4.18835 32.5423 5.50644 32.8085C6.82454 33.0748 8.19078 32.9381 9.4324 32.4159C10.674 31.8936 11.7352 31.0091 12.4819 29.8744C13.2285 28.7396 13.627 27.4055 13.627 26.0407C13.627 22.1446 14.5627 19.4428 16.8729 17.0967C19.1832 14.7505 21.9692 13.8004 25.6803 13.8004C27.4879 13.8004 29.2216 13.0711 30.4998 11.7731C31.778 10.475 32.4961 8.71444 32.4961 6.8787C32.4961 5.04296 31.778 3.28241 30.4998 1.98434C29.2216 0.686281 27.4879 -0.0429688 25.6803 -0.0429688" fill="#F16E25"></path></g></svg>